<?xml version="1.0" encoding="utf-8"?>
<!-- Generator: Adobe Illustrator 23.0.3, SVG Export Plug-In . SVG Version: 6.00 Build 0)  -->
<svg version="1.1" id="レイヤー_1" xmlns="http://www.w3.org/2000/svg" xmlns:xlink="http://www.w3.org/1999/xlink" x="0px"
	 y="0px" viewBox="0 0 201 120" style="enable-background:new 0 0 201 120;" xml:space="preserve">
<style type="text/css">
	.st0{fill-rule:evenodd;clip-rule:evenodd;fill:#FFFFFF;}
	.st1{fill:#FFFFFF;}
</style>
<title>Group 2</title>
<desc>Created with Sketch.</desc>
<path id="unframe" class="st0" d="M0,29.2V10.7h6.1v17.7c0,4.2,1.4,5.7,5,5.7c3.4,0,5.9-1.8,5.9-6.1V10.7h6.1v28.5h-5.9v-2.7h-0.1
	c-0.6,0.9-2.9,3.5-7.4,3.5C3.1,40,0,35.8,0,29.2z M31.1,39.2V10.7H37v2.7h0.1c1.5-1.9,4.5-3.5,7.7-3.5c6.2,0,10.1,3.9,10.1,10.6
	v18.6h-6.1v-17c0-4.2-1.5-6.6-5.5-6.6c-3.8,0-6.1,2.3-6.1,6v17.7H31.1z M64.1,39.2V16h-4.3v-5.3h4.4V6.6c0-5.1,2.8-6.6,7-6.6h5.3
	v5.4h-4C70.6,5.4,70,6,70,8v2.7h7.1V16h-7v23.2H64.1z M81.4,39.2V10.7h5.8v3h0.1c1.1-2.2,3.5-3.5,5.9-3.5c1,0,1.9,0.3,2.5,0.5l-1,6
	c-0.6-0.2-1.3-0.4-2.3-0.4c-3.2,0-5,2.1-5,7.1v15.8H81.4z M117.2,39.2v-2.8h-0.1c-0.3,0.4-2.5,3.7-8.1,3.7c-7.1,0-10-4-10-8.3
	c0-5,2.8-7.2,9.7-8.9c6.2-1.6,7.6-2.2,7.6-4.2c0-1.8-1.6-3.4-5.2-3.4c-4.3,0-5.6,2.5-6.3,5l-5.2-2c1.1-4.5,4.8-8.3,11.4-8.3
	c6.3,0,11.5,3,11.5,10.8v18.4H117.2z M109.9,27.2c-4.3,1.1-5,2.5-5,4.1c0,2.3,1.6,3.4,4.7,3.4c4.9,0,6.9-2.4,6.9-4.8v-5.7h-0.1
	C116.1,24.9,115.5,25.7,109.9,27.2z M129.9,39.2V10.7h5.6v2.7h0.1c1.3-2,4-3.5,7-3.5c3.3,0,6,1.8,7.3,3.9h0.1
	c1.3-2.1,4.1-3.9,7.6-3.9c6.6,0,10.6,4,10.6,9.8v19.4h-5.6v-18c0-3.3-1.5-5.6-5.3-5.6c-3.5,0-5.3,2.1-5.3,5.2v18.4h-5.7v-18
	c0-3.3-1.7-5.6-5.2-5.6c-3.7,0-5.3,2.4-5.3,5.2v18.4H129.9z M195,29.7l4.4,3.6c-2.2,3.5-5.8,6.7-11.8,6.7c-7.7,0-13.4-5.8-13.4-15
	s5.6-15,13.1-15c7.4,0,12.9,5.7,12.9,15v1.8h-19.9c0.2,4.6,2.6,7.8,7.1,7.8C191.8,34.6,193.8,31.7,195,29.7z M180.5,22.2h13.9
	c-0.2-3.8-2.4-6.8-7-6.8C182.9,15.4,180.7,18.9,180.5,22.2z"/>
<g>
	<path class="st1" d="M10.1,109.1H6.3v-1.8h0.8c1,0,1.8-0.2,2.4-0.7c0.5-0.4,0.8-1,0.9-1.8l0-0.2h2.2v14.9h-2.5V109.1z"/>
	<path class="st1" d="M15.9,112.1c0-5.1,2-7.7,5.7-7.7c3.7,0,5.6,2.6,5.6,7.7c0,5.1-2,7.8-5.6,7.8C17.8,119.9,15.9,117.2,15.9,112.1
		z M24.6,112.1c0-3.9-1-5.6-3.1-5.6s-3.1,1.7-3.1,5.6c0,3.9,1,5.6,3.1,5.6C23.6,117.7,24.6,116,24.6,112.1z"/>
	<path class="st1" d="M29.5,117h2.9v2.6h-2.9V117z"/>
	<path class="st1" d="M37.2,109.1h-3.8v-1.8h0.8c1,0,1.8-0.2,2.4-0.7c0.5-0.4,0.8-1,0.9-1.8l0-0.2h2.2v14.9h-2.5V109.1z"/>
	<path class="st1" d="M42.7,114.7h2.5c0.1,2,1.2,3.1,3.3,3.1c2,0,3-1.1,3-2.6c0-1.5-1-2.4-3-2.4h-1.3v-2h1c1.6,0,2.5-0.8,2.5-2.1
		c0-1.4-0.9-2.2-2.6-2.2c-1.6,0-2.5,0.7-2.6,2.7h-2.5c0.1-3.2,2-4.8,5.2-4.8c3.1,0,5.1,1.6,5.1,3.9c0,1.4-0.7,2.6-2.2,3.2v0
		c2,0.4,3.1,1.8,3.1,3.7c0,2.8-2.1,4.7-5.7,4.7C44.8,119.9,42.8,117.8,42.7,114.7z"/>
	<path class="st1" d="M61.7,114.9h2.5c0.1,2.1,1.5,3.1,3.8,3.1c2.1,0,3.3-0.9,3.3-2.3c0-1.2-0.8-1.8-2.7-2.2l-2.4-0.6
		c-2.4-0.5-3.9-1.8-3.9-4c0-2.5,1.8-4.5,5.4-4.5c3.5,0,5.6,1.8,5.9,4.7H71c-0.2-1.7-1.4-2.6-3.4-2.6c-1.8,0-2.9,0.8-2.9,2.1
		c0,1,0.7,1.6,2.2,2l2.8,0.7c2.5,0.6,4.2,1.9,4.2,4.3c0,2.6-2,4.6-5.9,4.6C64.1,120,61.9,118.2,61.7,114.9z"/>
	<path class="st1" d="M85.5,108.8v10.8h-2.4l0-1.5c-0.7,1.2-1.9,1.8-3.4,1.8c-2.3,0-3.6-1.4-3.6-3.7v-7.4h2.5v6.9
		c0,1.3,0.6,2.1,1.9,2.1c1.4,0,2.6-0.9,2.6-3v-5.9H85.5z"/>
	<path class="st1" d="M97.7,112.2v7.4h-2.5v-6.9c0-1.3-0.6-2.1-1.9-2.1c-1.4,0-2.6,0.9-2.6,3v5.9h-2.5v-10.8h2.4l0,1.5
		c0.7-1.2,1.9-1.8,3.4-1.8C96.4,108.5,97.7,109.9,97.7,112.2z"/>
	<path class="st1" d="M100.6,117h2.9v2.6h-2.9V117z"/>
	<path class="st1" d="M111.6,112.9h5.9v2.2h-5.9V112.9z"/>
	<path class="st1" d="M128.6,109.1h-3.8v-1.8h0.8c1,0,1.8-0.2,2.4-0.7c0.5-0.4,0.8-1,0.9-1.8l0-0.2h2.2v14.9h-2.5V109.1z"/>
	<path class="st1" d="M145.4,114.2v2.1h-2.3v3.3h-2.5v-3.3h-6.8v-2.5l7-9.1h2.4v9.5H145.4z M140.6,108.3L140.6,108.3l-4.5,5.9h4.5
		V108.3z"/>
	<path class="st1" d="M168.2,104.7v14.9h-2.4v-7.7l0.2-5l-1,3.5l-2.9,9.2h-2.5l-3-9.4l-1-3.4l0.2,5.1v7.7h-2.3v-14.9h3.6l3.3,10.1
		l0.6,2.2l0.6-2.2l3.2-10.1H168.2z"/>
	<path class="st1" d="M170.7,114.2c0-3.4,2.2-5.7,5.4-5.7c3.1,0,5.4,2.3,5.4,5.7c0,3.3-2.2,5.8-5.4,5.8
		C172.9,119.9,170.7,117.5,170.7,114.2z M179,114.2c0-2.3-1.1-3.7-3-3.7c-1.8,0-3,1.5-3,3.7s1.1,3.7,3,3.7
		C177.9,117.9,179,116.4,179,114.2z"/>
	<path class="st1" d="M193,112.2v7.4h-2.5v-6.9c0-1.3-0.6-2.1-1.9-2.1c-1.4,0-2.6,0.9-2.6,3v5.9h-2.5v-10.8h2.4l0,1.5
		c0.7-1.2,1.9-1.8,3.4-1.8C191.7,108.5,193,109.9,193,112.2z"/>
	<path class="st1" d="M195.9,117h2.9v2.6h-2.9V117z"/>
</g>
<g>
	<path class="st1" d="M56.6,62h-5.3c0.1,1.3,0.8,2.1,1.9,2.1c0.9,0,1.4-0.4,1.7-1.2l1.6,0.1c-0.4,1.5-1.7,2.3-3.2,2.3
		c-2.3,0-3.6-1.6-3.6-3.9c0-2.2,1.3-3.8,3.5-3.8c2.1,0,3.5,1.4,3.5,3.8V62z M51.2,60.9h3.7c-0.1-1.2-0.8-1.8-1.8-1.8
		C52.1,59.1,51.3,59.7,51.2,60.9z"/>
	<path class="st1" d="M62.3,65.2l-1.6-2.7l-1.8,2.7H57l2.8-3.8L57.3,58h1.9l1.4,2.3l1.4-2.3h1.8l-2.5,3.4l2.7,3.8H62.3z"/>
	<path class="st1" d="M71.6,60.3v4.9H70v-4.6c0-0.9-0.4-1.4-1.2-1.4c-0.9,0-1.7,0.6-1.7,2v3.9h-1.6v-10H67v3.7
		c0.5-0.7,1.2-1.1,2.2-1.1C70.7,57.8,71.6,58.7,71.6,60.3z"/>
	<path class="st1" d="M73.5,55.2h1.6v1.6h-1.6V55.2z M73.5,58h1.6v7.2h-1.6V58z"/>
	<path class="st1" d="M83.9,61.5c0,2.3-1.2,3.9-3.1,3.9c-1,0-1.7-0.4-2.2-1.2l0,1h-1.4v-10h1.6v3.5c0.5-0.6,1.2-1,2.1-1
		C82.6,57.8,83.9,59.2,83.9,61.5z M82.3,61.5c0-1.5-0.7-2.3-1.8-2.3c-1.1,0-1.8,0.9-1.8,2.4c0,1.5,0.8,2.4,1.8,2.4
		C81.6,64,82.3,63,82.3,61.5z"/>
	<path class="st1" d="M85.4,55.2h1.6v1.6h-1.6V55.2z M85.4,58h1.6v7.2h-1.6V58z"/>
	<path class="st1" d="M91,63.2c0,0.5,0.2,0.7,0.7,0.7h0.8v1.3h-1.3c-1.3,0-1.8-0.5-1.8-1.8v-4.2l-1,0V58l1,0v-2.3H91V58l1.5,0v1.2
		L91,59.2V63.2z"/>
	<path class="st1" d="M93.8,55.2h1.6v1.6h-1.6V55.2z M93.8,58h1.6v7.2h-1.6V58z"/>
	<path class="st1" d="M97,61.6c0-2.3,1.5-3.8,3.6-3.8c2.1,0,3.6,1.5,3.6,3.8c0,2.2-1.5,3.8-3.6,3.8C98.5,65.4,97,63.8,97,61.6z
		 M102.6,61.6c0-1.5-0.7-2.5-2-2.5c-1.2,0-2,1-2,2.5s0.8,2.5,2,2.5C101.9,64.1,102.6,63.1,102.6,61.6z"/>
	<path class="st1" d="M112,60.3v4.9h-1.6v-4.6c0-0.9-0.4-1.4-1.2-1.4c-0.9,0-1.7,0.6-1.7,2v3.9h-1.6V58h1.6l0,1
		c0.5-0.8,1.3-1.2,2.2-1.2C111.1,57.8,112,58.7,112,60.3z"/>
	<path class="st1" d="M113.4,63l1.5,0c0.1,0.9,0.7,1.3,1.7,1.3c1,0,1.5-0.3,1.5-1c0-0.5-0.3-0.7-1-0.9l-1.4-0.3
		c-1.4-0.3-2.1-1-2.1-2c0-1.4,1-2.2,2.8-2.2c1.7,0,2.9,0.8,3,2.3l-1.5,0c-0.1-0.7-0.7-1.1-1.5-1.1c-0.8,0-1.3,0.3-1.3,0.9
		c0,0.4,0.3,0.7,1,0.8l1.5,0.3c1.5,0.3,2.1,1,2.1,2.1c0,1.5-1.2,2.4-3.1,2.4C114.7,65.4,113.6,64.6,113.4,63z"/>
	<path class="st1" d="M124.6,60.2c0-3.4,1.3-5.2,3.8-5.2c2.5,0,3.8,1.8,3.8,5.2c0,3.4-1.3,5.2-3.8,5.2
		C125.9,65.4,124.6,63.6,124.6,60.2z M130.4,60.2c0-2.6-0.6-3.7-2-3.7c-1.4,0-2,1.1-2,3.7c0,2.6,0.7,3.8,2.1,3.8
		C129.8,64,130.4,62.8,130.4,60.2z"/>
	<path class="st1" d="M133.8,60.2c0-3.4,1.3-5.2,3.8-5.2c2.5,0,3.8,1.8,3.8,5.2c0,3.4-1.3,5.2-3.8,5.2
		C135.1,65.4,133.8,63.6,133.8,60.2z M139.6,60.2c0-2.6-0.6-3.7-2-3.7c-1.4,0-2,1.1-2,3.7c0,2.6,0.7,3.8,2.1,3.8
		C138.9,64,139.6,62.8,139.6,60.2z"/>
	<path class="st1" d="M147.8,56.8h-5.2v-1.5h7.2v1.4c-2.5,2.4-3.6,4.9-3.9,8.6H144C144.2,61.9,145.5,59.1,147.8,56.8z"/>
</g>
</svg>
